<mxfile host="app.diagrams.net" modified="2022-10-27T23:56:50.974Z" agent="5.0 (Windows)" etag="Xc3tDhpIRWei-DAazlgw" version="20.5.1" type="github">
  <diagram id="2Lc9v8gZ8uLKUwIAFyxS" name="Page-1">
    <mxGraphModel dx="1422" dy="744" grid="1" gridSize="10" guides="1" tooltips="1" connect="1" arrows="1" fold="1" page="1" pageScale="1" pageWidth="827" pageHeight="1169" math="0" shadow="0">
      <root>
        <mxCell id="0" />
        <mxCell id="1" parent="0" />
        <mxCell id="qJqXayi-ItmOOAuyGNNi-1" value="" style="edgeStyle=orthogonalEdgeStyle;rounded=0;orthogonalLoop=1;jettySize=auto;html=1;entryX=0;entryY=0.5;entryDx=0;entryDy=0;" parent="1" source="qJqXayi-ItmOOAuyGNNi-3" target="uTHkBXgC6vzVMlK0IYui-2" edge="1">
          <mxGeometry relative="1" as="geometry">
            <mxPoint x="320" y="40" as="targetPoint" />
          </mxGeometry>
        </mxCell>
        <mxCell id="qJqXayi-ItmOOAuyGNNi-2" value="Provides Login Details" style="edgeLabel;html=1;align=center;verticalAlign=middle;resizable=0;points=[];" parent="qJqXayi-ItmOOAuyGNNi-1" vertex="1" connectable="0">
          <mxGeometry x="-0.275" y="2" relative="1" as="geometry">
            <mxPoint x="10" y="22" as="offset" />
          </mxGeometry>
        </mxCell>
        <mxCell id="qJqXayi-ItmOOAuyGNNi-3" value="User " style="ellipse;whiteSpace=wrap;html=1;" parent="1" vertex="1">
          <mxGeometry width="120" height="80" as="geometry" />
        </mxCell>
        <mxCell id="qJqXayi-ItmOOAuyGNNi-8" value="Failure" style="text;html=1;align=center;verticalAlign=middle;resizable=0;points=[];autosize=1;strokeColor=none;fillColor=none;" parent="1" vertex="1">
          <mxGeometry x="120" y="90" width="60" height="30" as="geometry" />
        </mxCell>
        <mxCell id="qJqXayi-ItmOOAuyGNNi-12" value="Success" style="text;html=1;align=center;verticalAlign=middle;resizable=0;points=[];autosize=1;strokeColor=none;fillColor=none;" parent="1" vertex="1">
          <mxGeometry x="340" y="40" width="70" height="30" as="geometry" />
        </mxCell>
        <mxCell id="qJqXayi-ItmOOAuyGNNi-14" value="&lt;div&gt;Redirect to home page &lt;/div&gt;" style="ellipse;whiteSpace=wrap;html=1;" parent="1" vertex="1">
          <mxGeometry x="670" width="120" height="80" as="geometry" />
        </mxCell>
        <mxCell id="uTHkBXgC6vzVMlK0IYui-5" style="edgeStyle=orthogonalEdgeStyle;rounded=0;orthogonalLoop=1;jettySize=auto;html=1;exitX=0.25;exitY=1;exitDx=0;exitDy=0;entryX=0.5;entryY=1;entryDx=0;entryDy=0;" edge="1" parent="1" source="uTHkBXgC6vzVMlK0IYui-2" target="qJqXayi-ItmOOAuyGNNi-3">
          <mxGeometry relative="1" as="geometry" />
        </mxCell>
        <mxCell id="uTHkBXgC6vzVMlK0IYui-10" style="edgeStyle=orthogonalEdgeStyle;rounded=0;orthogonalLoop=1;jettySize=auto;html=1;entryX=0;entryY=0.5;entryDx=0;entryDy=0;" edge="1" parent="1" source="uTHkBXgC6vzVMlK0IYui-2" target="uTHkBXgC6vzVMlK0IYui-7">
          <mxGeometry relative="1" as="geometry" />
        </mxCell>
        <mxCell id="uTHkBXgC6vzVMlK0IYui-2" value="Authentication" style="rounded=1;whiteSpace=wrap;html=1;absoluteArcSize=1;arcSize=14;strokeWidth=2;" vertex="1" parent="1">
          <mxGeometry x="230" y="10" width="100" height="60" as="geometry" />
        </mxCell>
        <mxCell id="uTHkBXgC6vzVMlK0IYui-14" style="edgeStyle=orthogonalEdgeStyle;rounded=0;orthogonalLoop=1;jettySize=auto;html=1;entryX=0;entryY=0.5;entryDx=0;entryDy=0;startArrow=none;" edge="1" parent="1" source="qJqXayi-ItmOOAuyGNNi-15" target="qJqXayi-ItmOOAuyGNNi-14">
          <mxGeometry relative="1" as="geometry" />
        </mxCell>
        <mxCell id="uTHkBXgC6vzVMlK0IYui-7" value="&lt;div&gt;Authorization&lt;/div&gt;" style="rounded=1;whiteSpace=wrap;html=1;absoluteArcSize=1;arcSize=14;strokeWidth=2;" vertex="1" parent="1">
          <mxGeometry x="418" y="10" width="100" height="60" as="geometry" />
        </mxCell>
        <mxCell id="qJqXayi-ItmOOAuyGNNi-15" value="Provide JWT" style="text;html=1;strokeColor=none;fillColor=none;align=center;verticalAlign=middle;whiteSpace=wrap;rounded=0;" parent="1" vertex="1">
          <mxGeometry x="550" y="25" width="76" height="30" as="geometry" />
        </mxCell>
        <mxCell id="uTHkBXgC6vzVMlK0IYui-16" value="" style="edgeStyle=orthogonalEdgeStyle;rounded=0;orthogonalLoop=1;jettySize=auto;html=1;entryX=0;entryY=0.5;entryDx=0;entryDy=0;endArrow=none;" edge="1" parent="1" source="uTHkBXgC6vzVMlK0IYui-7" target="qJqXayi-ItmOOAuyGNNi-15">
          <mxGeometry relative="1" as="geometry">
            <mxPoint x="518" y="40" as="sourcePoint" />
            <mxPoint x="670" y="40" as="targetPoint" />
          </mxGeometry>
        </mxCell>
      </root>
    </mxGraphModel>
  </diagram>
</mxfile>
